<svg width="120" height="60" viewBox="0 0 120 60" fill="none" xmlns="http://www.w3.org/2000/svg">
<path d="M33.0001 35.5199C31.0201 36.1799 28.8001 39.1199 27.6601 40.4399C17.7601 51.7799 11.3401 33.4799 10.5601 24.1199L18.4801 14.8199C18.2401 22.7399 20.2201 47.7599 31.2601 35.7599C32.4001 34.4999 33.1801 33.4199 35.3401 32.0399M33.0001 35.5199C42.8401 33.0599 44.1001 48.5999 41.2201 54.7199L49.3201 45.1799C47.7001 34.2599 42.7201 28.1999 35.3401 32.0399" fill="url(#paint0_linear_124_1666)"/>
<path d="M34.8 24.48C36.78 23.82 39 20.88 40.08 19.56C49.92 8.21997 56.46 26.52 57.18 35.88L49.26 45.18C49.5 37.26 47.52 12.24 36.48 24.18C35.34 25.44 34.62 26.64 32.46 28.02M34.8 24.48C24.96 26.94 23.7 11.46 26.58 5.33997L18.48 14.88C20.1 25.8 25.08 31.86 32.46 28.02" fill="url(#paint1_linear_124_1666)"/>
<path d="M71.1599 28.8599C70.4399 28.6799 69.1799 27.7199 68.8799 26.9999H69.5999C71.0399 26.9999 72.5399 26.1599 73.7999 25.4399C73.9799 24.7799 74.6399 22.7399 74.6399 22.1399C74.6399 21.5399 74.5199 21.2399 74.3399 20.8199C74.5199 20.8199 74.6399 20.8199 74.7599 20.8199C75.5399 20.8199 76.7999 21.6599 76.7999 22.5599C76.7999 23.4599 76.1399 24.5999 76.0199 24.8399C76.7999 24.6599 77.5799 24.4799 78.3599 24.4799C79.1399 24.4799 80.9399 26.2199 80.9399 27.2999C80.9399 28.3799 78.7799 37.2599 75.7799 37.7999C75.4199 37.6199 75.1199 37.3799 74.8799 37.0199C74.4599 36.4799 73.1399 34.0799 72.9599 33.4199C73.6199 33.6599 74.3999 33.8999 75.1199 33.8999C75.8399 33.8999 75.9599 33.7199 76.3199 33.3599C77.0399 32.4599 78.1799 28.8599 78.1799 27.7199C78.1799 26.5799 78.1799 27.1199 77.8799 26.9399C77.7599 26.6999 77.4599 26.6399 77.2199 26.6399C76.5599 26.6399 75.5999 26.9999 75.0599 27.4199C74.0999 30.0599 72.4199 33.4799 72.2999 33.7199C71.9999 34.3199 70.9799 35.6999 70.2599 35.6999C69.7199 35.3999 69.6599 34.6199 69.6599 34.1399C69.6599 33.1799 69.6599 33.0599 70.9199 31.4999C71.6399 30.5399 72.1799 29.3399 72.7199 28.3199L71.2799 28.8599H71.1599ZM84.0599 27.7199C83.5199 26.4599 82.4399 25.5599 81.6599 24.4199C85.3799 24.7799 87.2999 27.0599 87.2999 28.9799C87.2999 30.8999 87.0599 30.4799 86.0999 30.4799C85.1399 30.4799 84.5999 29.6999 83.9999 29.4599C83.5799 29.2799 83.0999 29.0999 82.6199 28.8599C83.2199 28.7399 83.9399 28.4399 84.0599 27.7199Z" fill="#0F2F8D"/>
<path d="M100.92 28.5C99.54 28.86 98.16 29.22 96.84 29.64C96.78 30.48 96.66 31.32 96.66 32.16C96.66 34.56 97.26 35.04 99.54 35.04C101.82 35.04 102.42 34.38 103.92 34.38C105.42 34.38 106.02 34.74 106.02 35.7C106.02 36.66 106.02 35.82 106.02 35.88C105.6 37.44 101.7 37.62 100.44 37.62C97.02 37.62 94.74 36.42 94.74 32.76V30.18C94.14 30.18 93.3 30.78 93 30.78C92.34 30.78 90.84 29.1 90.54 28.44H91.86C92.4 28.44 94.38 27.84 94.92 27.66C94.92 27.3 95.04 26.88 95.04 26.46C95.04 25.68 94.74 24.9 94.5 24.24C96.78 24.36 97.08 25.02 97.08 27.18C98.4 26.94 99.66 26.58 100.98 26.22C101.04 25.62 101.04 25.08 101.04 24.6V22.62C100.74 22.08 100.38 21.6 99.96 21.12C100.2 21.12 101.22 20.58 101.4 20.58C102 20.58 103.74 21.78 103.74 22.38C103.74 23.28 103.62 24.72 103.5 25.62C104.22 25.44 105 25.14 105.72 25.14C106.44 25.14 108.12 25.68 108.12 26.64C108.12 27.6 104.16 28.14 103.44 28.26C103.2 29.88 103.68 32.7 101.52 33.18C101.04 32.94 100.98 32.94 99.9 31.62C99.48 31.2 99.06 30.72 98.64 30.24C99.18 30.36 99.78 30.42 100.44 30.42H100.8L101.04 28.44H100.92V28.5ZM107.16 22.8C107.4 23.04 107.76 23.64 107.76 24C107.76 24.36 107.52 24.9 107.16 24.9C106.8 24.9 106.38 24.78 106.08 24.48C105.18 23.58 104.76 22.26 103.92 21.24C105.12 21.48 106.32 21.84 107.16 22.8ZM109.44 22.56V22.92C109.26 23.1 109.02 23.34 108.78 23.34C107.58 23.34 106.8 20.94 106.08 20.22C107.4 20.34 109.44 20.88 109.44 22.56Z" fill="#0F2F8D"/>
<defs>
<linearGradient id="paint0_linear_124_1666" x1="12.6601" y1="34.7999" x2="48.7201" y2="34.7999" gradientUnits="userSpaceOnUse">
<stop stop-color="#2E4E9F"/>
<stop offset="0.5" stop-color="#3F7EAE"/>
<stop offset="1" stop-color="#57BEC4"/>
</linearGradient>
<linearGradient id="paint1_linear_124_1666" x1="55.38" y1="25.26" x2="19.32" y2="25.26" gradientUnits="userSpaceOnUse">
<stop stop-color="#2E4E9F"/>
<stop offset="0.5" stop-color="#3F7EAE"/>
<stop offset="1" stop-color="#57BEC4"/>
</linearGradient>
</defs>
</svg>
