<svg width="100" height="50" viewBox="0 0 100 50" fill="none" xmlns="http://www.w3.org/2000/svg">
<path d="M23.0001 30.5106C21.0201 31.1612 18.8001 34.0591 17.6601 35.3602C7.76006 46.5379 1.34006 28.4998 0.560059 19.2738L8.48006 10.1069C8.24006 17.9136 10.2201 42.5754 21.2601 30.7472C22.4001 29.5052 23.1801 28.4407 25.3401 27.0805M23.0001 30.5106C32.8401 28.0858 34.1001 43.4034 31.2201 49.4358L39.3201 40.0324C37.7001 29.2687 32.7201 23.2954 25.3401 27.0805" fill="white"/>
<path d="M24.8 19.6286C26.78 18.9781 29 16.0801 30.08 14.779C39.92 3.60135 46.46 21.6394 47.18 30.8654L39.26 40.0323C39.5 32.2257 37.52 7.56381 26.48 19.3329C25.34 20.5749 24.62 21.7577 22.46 23.1179M24.8 19.6286C14.96 22.0534 13.7 6.79497 16.58 0.762573L8.47998 10.166C10.1 20.9297 15.08 26.903 22.46 23.1179" fill="white"/>
<path d="M61.1599 23.9462C60.4399 23.7687 59.1799 22.8225 58.8799 22.1128H59.5999C61.0399 22.1128 62.5399 21.2848 63.7999 20.5751C63.9799 19.9246 64.6399 17.9138 64.6399 17.3223C64.6399 16.7309 64.5199 16.4352 64.3399 16.0212C64.5199 16.0212 64.6399 16.0212 64.7599 16.0212C65.5399 16.0212 66.7999 16.8492 66.7999 17.7363C66.7999 18.6235 66.1399 19.7471 66.0199 19.9837C66.7999 19.8063 67.5799 19.6289 68.3599 19.6289C69.1399 19.6289 70.9399 21.3439 70.9399 22.4085C70.9399 23.473 68.7799 32.2259 65.7799 32.7582C65.4199 32.5808 65.1199 32.3442 64.8799 31.9894C64.4599 31.4571 63.1399 29.0914 62.9599 28.4409C63.6199 28.6775 64.3999 28.914 65.1199 28.914C65.8399 28.914 65.9599 28.7366 66.3199 28.3817C67.0399 27.4946 68.1799 23.9462 68.1799 22.8225C68.1799 21.6988 68.1799 22.2311 67.8799 22.0536C67.7599 21.8171 67.4599 21.7579 67.2199 21.7579C66.5599 21.7579 65.5999 22.1128 65.0599 22.5268C64.0999 25.129 62.4199 28.5 62.2999 28.7366C61.9999 29.328 60.9799 30.6883 60.2599 30.6883C59.7199 30.3925 59.6599 29.6237 59.6599 29.1506C59.6599 28.2043 59.6599 28.086 60.9199 26.5484C61.6399 25.6021 62.1799 24.4193 62.7199 23.4139L61.2799 23.9462H61.1599ZM74.0599 22.8225C73.5199 21.5805 72.4399 20.6934 71.6599 19.5697C75.3799 19.9246 77.2999 22.1719 77.2999 24.0644C77.2999 25.957 77.0599 25.543 76.0999 25.543C75.1399 25.543 74.5999 24.7741 73.9999 24.5376C73.5799 24.3601 73.0999 24.1827 72.6199 23.9462C73.2199 23.8279 73.9399 23.5322 74.0599 22.8225Z" fill="white"/>
<path d="M90.92 23.591C89.54 23.9459 88.16 24.3007 86.84 24.7147C86.78 25.5427 86.66 26.3707 86.66 27.1987C86.66 29.5643 87.26 30.0374 89.54 30.0374C91.82 30.0374 92.42 29.3869 93.92 29.3869C95.42 29.3869 96.02 29.7417 96.02 30.688C96.02 31.6342 96.02 30.8063 96.02 30.8654C95.6 32.4031 91.7 32.5805 90.44 32.5805C87.02 32.5805 84.74 31.3977 84.74 27.7901V25.247C84.14 25.247 83.3 25.8384 83 25.8384C82.34 25.8384 80.84 24.1825 80.54 23.5319H81.86C82.4 23.5319 84.38 22.9405 84.92 22.7631C84.92 22.4082 85.04 21.9942 85.04 21.5802C85.04 20.8114 84.74 20.0426 84.5 19.392C86.78 19.5103 87.08 20.1609 87.08 22.2899C88.4 22.0534 89.66 21.6985 90.98 21.3437C91.04 20.7523 91.04 20.22 91.04 19.7469V17.7952C90.74 17.2629 90.38 16.7898 89.96 16.3167C90.2 16.3167 91.22 15.7844 91.4 15.7844C92 15.7844 93.74 16.9672 93.74 17.5586C93.74 18.4458 93.62 19.8652 93.5 20.7523C94.22 20.5748 95 20.2791 95.72 20.2791C96.44 20.2791 98.12 20.8114 98.12 21.7577C98.12 22.7039 94.16 23.2362 93.44 23.3545C93.2 24.9513 93.68 27.7309 91.52 28.2041C91.04 27.9675 90.98 27.9675 89.9 26.6664C89.48 26.2524 89.06 25.7793 88.64 25.3061C89.18 25.4244 89.78 25.4836 90.44 25.4836H90.8L91.04 23.5319H90.92V23.591ZM97.16 17.9726C97.4 18.2092 97.76 18.8006 97.76 19.1555C97.76 19.5103 97.52 20.0426 97.16 20.0426C96.8 20.0426 96.38 19.9243 96.08 19.6286C95.18 18.7415 94.76 17.4404 93.92 16.435C95.12 16.6715 96.32 17.0264 97.16 17.9726ZM99.44 17.7361V18.0909C99.26 18.2683 99.02 18.5049 98.78 18.5049C97.58 18.5049 96.8 16.1393 96.08 15.4296C97.4 15.5478 99.44 16.0801 99.44 17.7361Z" fill="white"/>
</svg>
